<?xml version="1.0" encoding="UTF-8"?>
<svg xmlns="http://www.w3.org/2000/svg" xmlns:xlink="http://www.w3.org/1999/xlink" width="30pt" height="30pt" viewBox="0 0 30 30" version="1.1">
<g id="surface1">
<path style=" stroke:none;fill-rule:nonzero;fill:rgb(0%,0%,0%);fill-opacity:1;" d="M 13.835938 1.222656 C 13.511719 1.253906 13.316406 1.335938 13.097656 1.550781 C 12.929688 1.714844 1.453125 14.507812 1.347656 14.644531 C 0.976562 15.148438 0.574219 16.078125 0.355469 16.949219 C 0.328125 17.066406 0.269531 17.261719 0.234375 17.386719 C 0.152344 17.632812 0.0703125 18.046875 0.0351562 18.335938 C 0.0195312 18.460938 0.0078125 18.734375 0.0117188 19.085938 C 0.0117188 19.5625 0.015625 19.679688 0.0507812 19.898438 C 0.234375 21.089844 0.742188 22.09375 1.59375 22.949219 C 1.894531 23.25 2.160156 23.46875 2.492188 23.691406 C 2.964844 24.003906 2.367188 23.8125 9.769531 26.007812 C 13.457031 27.101562 16.53125 28.007812 16.597656 28.023438 C 16.953125 28.101562 17.320312 27.988281 17.585938 27.730469 C 17.710938 27.613281 28.605469 14.5 28.714844 14.34375 C 28.859375 14.140625 28.910156 13.949219 28.90625 13.671875 C 28.90625 13.46875 28.90625 13.453125 28.835938 13.265625 C 28.691406 12.894531 28.636719 12.597656 28.640625 12.179688 C 28.640625 11.792969 28.679688 11.589844 28.832031 11.152344 C 28.914062 10.894531 28.921875 10.863281 28.925781 10.695312 C 28.925781 10.371094 28.824219 10.113281 28.59375 9.886719 C 28.363281 9.65625 28.132812 9.558594 27.808594 9.554688 C 27.570312 9.554688 27.402344 9.605469 27.210938 9.734375 C 26.960938 9.894531 26.832031 10.082031 26.683594 10.492188 C 26.363281 11.367188 26.292969 12.324219 26.492188 13.144531 C 26.515625 13.257812 26.539062 13.371094 26.539062 13.394531 C 26.542969 13.429688 25.375 14.84375 21.503906 19.511719 C 18.730469 22.847656 16.457031 25.589844 16.449219 25.597656 C 16.441406 25.605469 13.585938 24.765625 10.101562 23.738281 C 5.242188 22.304688 3.726562 21.847656 3.601562 21.789062 C 2.945312 21.480469 2.480469 20.78125 2.3125 19.851562 C 2.253906 19.53125 2.238281 18.824219 2.28125 18.484375 C 2.339844 18.058594 2.433594 17.78125 2.601562 17.527344 C 2.726562 17.34375 2.851562 17.226562 3.023438 17.140625 C 3.226562 17.042969 3.34375 17.019531 3.664062 17.011719 L 3.953125 17 L 9.824219 18.6875 C 13.667969 19.792969 15.746094 20.378906 15.835938 20.390625 C 15.976562 20.40625 16.175781 20.390625 16.300781 20.351562 C 16.335938 20.34375 16.433594 20.296875 16.515625 20.257812 C 16.628906 20.195312 16.695312 20.140625 16.824219 20.011719 C 16.972656 19.859375 28.625 6.421875 28.796875 6.207031 C 28.839844 6.15625 28.898438 6.054688 28.933594 5.988281 C 29.210938 5.40625 28.96875 4.734375 28.375 4.4375 C 28.234375 4.371094 27.871094 4.285156 21.195312 2.792969 C 17.328125 1.929688 14.128906 1.21875 14.082031 1.214844 C 14.035156 1.210938 13.925781 1.214844 13.835938 1.222656 Z M 13.777344 5.703125 C 13.964844 5.734375 22.148438 7.734375 22.304688 7.777344 C 22.644531 7.890625 22.785156 8.113281 22.664062 8.34375 C 22.597656 8.460938 21.65625 9.570312 21.5625 9.640625 C 21.34375 9.800781 21.085938 9.867188 20.742188 9.867188 L 20.492188 9.867188 L 16.246094 8.828125 C 13.914062 8.257812 11.957031 7.765625 11.90625 7.746094 C 11.652344 7.628906 11.550781 7.425781 11.632812 7.210938 C 11.664062 7.136719 12.519531 6.089844 12.65625 5.964844 C 12.867188 5.761719 13.417969 5.636719 13.777344 5.703125 Z M 13.777344 5.703125 "/>
</g>
</svg>
